<mxfile host="app.diagrams.net" modified="2023-02-13T12:14:07.662Z" agent="5.0 (Windows NT 10.0; Win64; x64) AppleWebKit/537.36 (KHTML, like Gecko) Chrome/109.0.0.0 Safari/537.36" etag="hnKKESMzCdiFFGk0ElDn" version="20.8.20" type="github">
  <diagram name="PÃ¡gina-1" id="RCo_QdBF7vtueg-SSZrH">
    <mxGraphModel dx="1194" dy="584" grid="1" gridSize="10" guides="1" tooltips="1" connect="1" arrows="1" fold="1" page="1" pageScale="1" pageWidth="827" pageHeight="1169" math="0" shadow="0">
      <root>
        <mxCell id="0" />
        <mxCell id="1" parent="0" />
        <mxCell id="1DPLQ5j4LygSINMNtftr-1" value="Condominio" style="rounded=0;whiteSpace=wrap;html=1;" vertex="1" parent="1">
          <mxGeometry x="60" y="95" width="120" height="40" as="geometry" />
        </mxCell>
        <mxCell id="1DPLQ5j4LygSINMNtftr-2" value="Vaga de garagem" style="rhombus;whiteSpace=wrap;html=1;" vertex="1" parent="1">
          <mxGeometry x="290" y="70" width="150" height="90" as="geometry" />
        </mxCell>
        <mxCell id="1DPLQ5j4LygSINMNtftr-3" value="Morador" style="rounded=0;whiteSpace=wrap;html=1;" vertex="1" parent="1">
          <mxGeometry x="580" y="97.5" width="120" height="37.5" as="geometry" />
        </mxCell>
        <mxCell id="1DPLQ5j4LygSINMNtftr-4" value="" style="endArrow=classic;html=1;rounded=0;exitX=0;exitY=0.5;exitDx=0;exitDy=0;entryX=1;entryY=0.5;entryDx=0;entryDy=0;" edge="1" parent="1" source="1DPLQ5j4LygSINMNtftr-2" target="1DPLQ5j4LygSINMNtftr-1">
          <mxGeometry width="50" height="50" relative="1" as="geometry">
            <mxPoint x="180" y="170" as="sourcePoint" />
            <mxPoint x="190" y="110" as="targetPoint" />
          </mxGeometry>
        </mxCell>
        <mxCell id="1DPLQ5j4LygSINMNtftr-5" value="" style="endArrow=classic;html=1;rounded=0;exitX=1;exitY=0.5;exitDx=0;exitDy=0;entryX=0;entryY=0.5;entryDx=0;entryDy=0;" edge="1" parent="1" source="1DPLQ5j4LygSINMNtftr-2" target="1DPLQ5j4LygSINMNtftr-3">
          <mxGeometry width="50" height="50" relative="1" as="geometry">
            <mxPoint x="470" y="140" as="sourcePoint" />
            <mxPoint x="520" y="90" as="targetPoint" />
          </mxGeometry>
        </mxCell>
        <mxCell id="1DPLQ5j4LygSINMNtftr-6" value="Condominio" style="rounded=0;whiteSpace=wrap;html=1;" vertex="1" parent="1">
          <mxGeometry x="70" y="210" width="120" height="30" as="geometry" />
        </mxCell>
        <mxCell id="1DPLQ5j4LygSINMNtftr-7" value="" style="whiteSpace=wrap;html=1;aspect=fixed;" vertex="1" parent="1">
          <mxGeometry x="70" y="240" width="120" height="120" as="geometry" />
        </mxCell>
        <mxCell id="1DPLQ5j4LygSINMNtftr-8" value="" style="rounded=0;whiteSpace=wrap;html=1;" vertex="1" parent="1">
          <mxGeometry x="320" y="210" width="120" height="30" as="geometry" />
        </mxCell>
        <mxCell id="1DPLQ5j4LygSINMNtftr-9" value="" style="whiteSpace=wrap;html=1;aspect=fixed;" vertex="1" parent="1">
          <mxGeometry x="320" y="240" width="120" height="120" as="geometry" />
        </mxCell>
        <mxCell id="1DPLQ5j4LygSINMNtftr-10" value="" style="rounded=0;whiteSpace=wrap;html=1;" vertex="1" parent="1">
          <mxGeometry x="580" y="210" width="120" height="30" as="geometry" />
        </mxCell>
        <mxCell id="1DPLQ5j4LygSINMNtftr-11" value="" style="whiteSpace=wrap;html=1;aspect=fixed;" vertex="1" parent="1">
          <mxGeometry x="580" y="240" width="120" height="120" as="geometry" />
        </mxCell>
      </root>
    </mxGraphModel>
  </diagram>
</mxfile>
